External Loads File
version=1
nRows=46
nColumns=13
Range=5.000000e-03-10 seconds
endheader
time 	forceRightX 	forceRightY 	forceRightZ 	pointRightX 	pointRightY 	pointRightZ 	forceLeftX 	forceLeftY 	forceLeftZ 	pointLeftX 	pointLeftY 	pointLeftZ 		
5.005000 16.560451 1334.033639 -0.000000 0.363769 0.214964 -0.095729 80.020491 -78.684745 -0.000000 0.133354 0.403901 -0.334443
5.010000 43.071730 1370.386570 -0.000000 0.357507 0.206392 -0.095722 63.159140 -82.804453 -0.000000 0.140446 0.412592 -0.334632
5.015000 71.321791 1401.576540 -0.000000 0.350877 0.198283 -0.095835 46.292666 -83.305407 -0.000000 0.147916 0.420820 -0.334797
5.020000 101.018272 1425.330152 -0.000000 0.344029 0.190717 -0.095831 30.062881 -79.391335 -0.000000 0.155840 0.428701 -0.334809
5.025000 131.744801 1439.082859 -0.000000 0.336860 0.183668 -0.095851 15.157503 -70.347880 -0.000000 0.164092 0.436170 -0.334979
5.030000 161.900041 1440.157547 -0.000000 0.329463 0.177386 -0.095790 2.321970 -55.617125 -0.000000 0.172632 0.443161 -0.335055
5.035000 190.231419 1425.812327 -0.000000 0.321939 0.171796 -0.095729 -7.802522 -34.927693 -0.000000 0.181315 0.449651 -0.335040
5.040000 216.053439 1393.385753 -0.000000 0.314363 0.166714 -0.095684 -14.725558 -8.411302 -0.000000 0.190188 0.455501 -0.334948
5.045000 240.744157 1340.257545 -0.000000 0.306796 0.162197 -0.095727 -18.090326 23.224484 -0.000000 0.199939 0.460608 -0.335975
5.050000 257.240443 1266.123111 -0.000000 0.299360 0.158090 -0.095629 -17.918135 58.334799 -0.000000 0.208994 0.465235 -0.335311
5.055000 268.381011 1170.310721 -0.000000 0.292033 0.154556 -0.095498 -14.544513 94.538450 -0.000000 0.218461 0.469026 -0.335497
5.060000 272.139539 1054.750548 -0.000000 0.284884 0.151549 -0.095145 -8.870363 128.848339 -0.000000 0.227888 0.472744 -0.335702
5.065000 267.089829 923.414511 -0.000000 0.278035 0.148391 -0.094804 -2.378629 158.466506 -0.000000 0.237046 0.476284 -0.336145
5.070000 254.961267 781.525044 -0.000000 0.271016 0.146536 -0.094312 3.638574 181.630754 -0.000000 0.246199 0.479532 -0.336561
5.075000 236.584097 636.041417 -0.000000 0.263573 0.145236 -0.093937 7.930355 197.977104 -0.000000 0.254933 0.482281 -0.337202
5.080000 215.308718 493.314837 -0.000000 0.255313 0.144876 -0.093619 10.295195 208.255257 -0.000000 0.263829 0.484216 -0.337693
5.085000 192.418700 359.149706 -0.000000 0.246206 0.145536 -0.093483 10.333587 213.836322 -0.000000 0.272681 0.485549 -0.338075
5.090000 169.593333 236.824708 -0.000000 0.236205 0.146918 -0.093707 7.957768 216.330699 -0.000000 0.281348 0.486186 -0.338569
5.095000 147.946960 127.099909 -0.000000 0.225814 0.148650 -0.094185 3.145691 217.424563 -0.000000 0.289960 0.486122 -0.338914
5.100000 128.005004 28.712631 -0.000000 0.215645 0.151856 -0.094807 -3.954347 218.728316 -0.000000 0.298258 0.485176 -0.339188
5.105000 109.664952 -60.666559 -0.000000 0.205910 0.155351 -0.095089 -12.927814 221.619149 -0.000000 0.306231 0.483351 -0.339609
5.110000 92.018691 -143.410025 -0.000000 0.196543 0.159411 -0.095294 -23.009222 227.199422 -0.000000 0.314039 0.480707 -0.340399
5.115000 74.047684 -220.686973 -0.000000 0.187526 0.163811 -0.095513 -34.165298 236.191381 -0.000000 0.321249 0.477460 -0.340633
5.120000 54.516312 -292.596900 -0.000000 0.178727 0.168827 -0.095661 -45.982909 248.983082 -0.000000 0.327961 0.473424 -0.340768
5.125000 32.610303 -357.794304 -0.000000 0.170431 0.174902 -0.095819 -58.374845 265.628714 -0.000000 0.334268 0.468584 -0.341182
5.130000 7.927690 -413.889010 -0.000000 0.161801 0.180685 -0.096944 -71.119842 286.086582 -0.000000 0.340397 0.463035 -0.341404
5.135000 -16.794269 -458.022193 -0.000000 0.154422 0.186990 -0.096916 -85.537074 309.951425 -0.000000 0.345831 0.456936 -0.341434
5.140000 -42.172637 -487.543531 -0.000000 0.147613 0.193760 -0.096834 -100.072271 337.648288 -0.000000 0.351637 0.449887 -0.341918
5.145000 -64.665733 -500.603640 -0.000000 0.141134 0.200638 -0.096535 -115.579668 369.025016 -0.000000 0.356826 0.442373 -0.342449
5.150000 -83.529400 -496.358710 -0.000000 0.134783 0.208007 -0.096272 -130.550970 404.595270 -0.000000 0.361721 0.433891 -0.343179
5.155000 -95.150415 -475.865984 -0.000000 0.129089 0.215779 -0.096408 -145.495893 444.113902 -0.000000 0.366211 0.425219 -0.343608
5.160000 -98.983746 -441.215536 -0.000000 0.123624 0.223859 -0.096512 -158.747929 487.764453 -0.000000 0.370273 0.415888 -0.343718
5.165000 -94.735383 -395.584050 -0.000000 0.118626 0.232783 -0.096546 -168.642103 535.328408 -0.000000 0.374250 0.406178 -0.343091
5.170000 -82.137838 -342.945434 -0.000000 0.114148 0.242716 -0.096608 -174.331443 585.863675 -0.000000 0.377611 0.396213 -0.342617
5.175000 -61.141217 -287.526642 -0.000000 0.110237 0.252395 -0.096567 -176.772095 637.593971 -0.000000 0.380397 0.385935 -0.342374
5.180000 -34.427408 -232.714270 -0.000000 0.106973 0.262286 -0.096490 -173.613248 689.629255 -0.000000 0.382792 0.374748 -0.342108
5.185000 -2.766206 -181.650801 -0.000000 0.104232 0.272417 -0.096441 -168.938464 739.589806 -0.000000 0.384571 0.364427 -0.341790
5.190000 30.684577 -136.295641 -0.000000 0.102157 0.282624 -0.096384 -161.751389 786.901768 -0.000000 0.385995 0.353860 -0.341459
5.195000 63.634303 -98.170504 -0.000000 0.100774 0.293118 -0.096388 -152.947701 830.989173 -0.000000 0.387172 0.343185 -0.341223
5.200000 94.062588 -68.173475 -0.000000 0.100162 0.303507 -0.096348 -144.639113 871.571542 -0.000000 0.387870 0.332320 -0.340827
5.205000 119.929039 -46.821327 -0.000000 0.100228 0.314103 -0.096397 -137.027202 909.156313 -0.000000 0.388435 0.321410 -0.340678
5.210000 139.660011 -33.963537 -0.000000 0.101074 0.324688 -0.096409 -131.424543 944.390772 -0.000000 0.388116 0.310446 -0.339567
5.215000 152.144989 -28.883691 -0.000000 0.102650 0.335115 -0.096492 -128.745049 978.278712 -0.000000 0.387599 0.299500 -0.339081
5.220000 156.847949 -30.626615 -0.000000 0.104868 0.345606 -0.096643 -128.120101 1012.228640 -0.000000 0.386728 0.288529 -0.339180
5.225000 153.865383 -37.777544 -0.000000 0.107948 0.356079 -0.096763 -129.303973 1047.524429 -0.000000 0.384996 0.277713 -0.338900
5.230000 143.796313 -48.763400 -0.000000 0.111746 0.366416 -0.096942 -131.630455 1085.266722 -0.000000 0.382697 0.267020 -0.338651
